<svg width="34" height="34" viewBox="0 0 34 34" fill="none" xmlns="http://www.w3.org/2000/svg">
<path d="M3.54169 17C3.54169 11.0075 3.54169 8.01127 5.23885 6.0251C5.48063 5.74177 5.74271 5.47969 6.0251 5.23885C8.01127 3.54169 11.0075 3.54169 17 3.54169C22.9925 3.54169 25.9888 3.54169 27.9749 5.23885C28.2583 5.48063 28.5204 5.74271 28.7612 6.0251C30.4584 8.01127 30.4584 11.0075 30.4584 17C30.4584 22.9925 30.4584 25.9888 28.7612 27.9749C28.5194 28.2583 28.2573 28.5204 27.9749 28.7612C25.9888 30.4584 22.9925 30.4584 17 30.4584C11.0075 30.4584 8.01127 30.4584 6.0251 28.7612C5.74177 28.5194 5.47969 28.2573 5.23885 27.9749C3.54169 25.9888 3.54169 22.9925 3.54169 17Z" stroke="white" stroke-width="1.5" stroke-linecap="round" stroke-linejoin="round"/>
<path d="M21.2812 14.4982C21.2203 13.6765 20.7556 11.6861 18.9678 10.9509C16.7351 10.0314 13.7927 11.1889 13.5178 14.1681C13.3889 15.5664 14.1128 17.0326 15.1654 17.7565C16.1316 18.4224 17.5993 18.3884 18.9678 18.3884H11.3702M15.9602 18.3884C15.7023 19.3659 14.2885 22.1723 12.036 23.3453H20.2328C20.5502 23.3453 21.4455 23.4218 22.712 22.5718" stroke="white" stroke-width="1.5" stroke-linecap="round" stroke-linejoin="round"/>
</svg>
