<svg width="24" height="24" viewBox="0 0 24 24" fill="none" xmlns="http://www.w3.org/2000/svg">
<path d="M12.84 14.46L19.62 7.68L17.94 5.94L12.84 11.04L10.26 8.52L8.58 10.2L12.84 14.46ZM7.2 19.2C6.54 19.2 5.975 18.965 5.505 18.495C5.035 18.025 4.8 17.46 4.8 16.8V2.4C4.8 1.74 5.035 1.175 5.505 0.705C5.975 0.235 6.54 0 7.2 0H21.6C22.26 0 22.825 0.235 23.295 0.705C23.765 1.175 24 1.74 24 2.4V16.8C24 17.46 23.765 18.025 23.295 18.495C22.825 18.965 22.26 19.2 21.6 19.2H7.2ZM2.4 24C1.74 24 1.175 23.765 0.705 23.295C0.235 22.825 0 22.26 0 21.6V4.8H2.4V21.6H19.2V24H2.4Z" fill="#58A20F"/>
</svg>
