<svg width="24" height="24" viewBox="0 0 24 24" fill="none" xmlns="http://www.w3.org/2000/svg">
<path d="M19.5 2.5V3.5H17.5V7C17.5 7.93501 17.2827 8.80828 16.8467 9.62695C16.4125 10.4421 15.8096 11.0896 15.0342 11.5762L14.3594 12L15.0342 12.4238C15.8096 12.9104 16.4125 13.5579 16.8467 14.373C17.2827 15.1917 17.5 16.065 17.5 17V20.5H19.5V21.5H4.5V20.5H6.5V17C6.5 16.065 6.71732 15.1917 7.15332 14.373C7.58754 13.5579 8.19035 12.9104 8.96582 12.4238L9.64062 12L8.96582 11.5762C8.19035 11.0896 7.58754 10.4421 7.15332 9.62695C6.71732 8.80828 6.5 7.93501 6.5 7V3.5H4.5V2.5H19.5Z" fill="#63B8FD" stroke="#215B8B"/>
</svg>
