<svg width="22" height="20" viewBox="0 0 22 20" fill="none" xmlns="http://www.w3.org/2000/svg">
<path d="M21.3458 12.5274C21.1271 12.156 20.7892 11.8697 20.3872 11.7154C19.9852 11.5611 19.5428 11.5478 19.1323 11.6777L18.1571 11.9878V1.34771C18.1565 0.990051 18.0142 0.647261 17.7614 0.394587C17.5087 0.141912 17.1661 -5.84775e-07 16.809 0H4.78307C4.42594 -5.84775e-07 4.08341 0.141912 3.83066 0.394587C3.5779 0.647261 3.43558 0.990051 3.43494 1.34771V10.6254C3.05805 10.6975 2.67528 10.7343 2.29158 10.7353H0.609463C0.447824 10.7353 0.292804 10.7996 0.178508 10.9141C0.0642111 11.0285 0 11.1838 0 11.3457C0 11.5076 0.0642111 11.6628 0.178508 11.7773C0.292804 11.8917 0.447824 11.956 0.609463 11.956H2.29158C3.57495 11.9575 4.83611 11.6207 5.94836 10.9794L10.6534 8.25229C10.8455 8.1657 11.0627 8.15271 11.2638 8.21577C11.4648 8.27883 11.6358 8.41357 11.7443 8.59444C11.8528 8.77532 11.8912 8.98977 11.8524 9.19715C11.8135 9.40453 11.7001 9.59044 11.5335 9.71963L7.04296 12.3662C6.7935 12.5143 6.59936 12.7401 6.49026 13.0092C6.38117 13.2782 6.36313 13.5757 6.43891 13.856C6.51469 14.1363 6.68011 14.384 6.90984 14.5612C7.13958 14.7384 7.42097 14.8353 7.71093 14.837H12.082C12.8499 14.8379 13.6133 14.7185 14.3443 14.483L19.5053 12.8228C19.6514 12.7767 19.8087 12.7815 19.9517 12.8365C20.0947 12.8915 20.2149 12.9934 20.2927 13.1255C20.3415 13.2074 20.3721 13.2989 20.3822 13.3938C20.3923 13.4886 20.3817 13.5845 20.3512 13.6749C20.3219 13.766 20.2735 13.8497 20.2092 13.9205C20.1448 13.9913 20.0661 14.0474 19.9782 14.085L13.1815 17.0417C13.0916 17.0788 12.9974 17.1042 12.9011 17.1174L6.5627 17.9573C6.14659 18.0102 5.72401 17.9442 5.34378 17.7668L2.80109 16.5778C2.2621 16.3255 1.67494 16.193 1.07997 16.1896H0.609463C0.447824 16.1896 0.292804 16.2539 0.178508 16.3684C0.0642111 16.4829 0 16.6381 0 16.8C0 16.9619 0.0642111 17.1171 0.178508 17.2316C0.292804 17.3461 0.447824 17.4104 0.609463 17.4104H1.07997C1.49582 17.4115 1.90654 17.5023 2.28427 17.6765L4.82695 18.8753C5.28077 19.0889 5.77602 19.1998 6.27747 19.2C6.42838 19.2004 6.57911 19.1897 6.72848 19.1683L13.0669 18.3308C13.2756 18.3047 13.4793 18.2479 13.6715 18.1624L20.4633 15.213C20.7077 15.1065 20.9269 14.9494 21.1064 14.7521C21.286 14.5548 21.4219 14.3217 21.5052 14.0681C21.5885 13.8146 21.6174 13.5462 21.5899 13.2807C21.5625 13.0152 21.4793 12.7584 21.3458 12.5274ZM13.3253 1.22075C13.2967 1.87173 13.0184 2.48654 12.5483 2.93706C12.0783 3.38758 11.4528 3.63904 10.8021 3.63904C10.1515 3.63904 9.52597 3.38758 9.05591 2.93706C8.58586 2.48654 8.30753 1.87173 8.27895 1.22075H13.3253ZM13.9713 13.3306C13.3608 13.5272 12.7233 13.6269 12.082 13.626H7.71581C7.7004 13.6262 7.68514 13.623 7.67108 13.6167C7.65701 13.6104 7.64446 13.6012 7.63428 13.5896C7.6241 13.578 7.61653 13.5644 7.61209 13.5496C7.60765 13.5348 7.60644 13.5192 7.60854 13.504C7.60815 13.4847 7.61293 13.4658 7.62236 13.449C7.63179 13.4323 7.64554 13.4184 7.66217 13.4087L12.1454 10.7719C12.6034 10.4849 12.9319 10.0306 13.0613 9.50526C13.1907 8.97991 13.1109 8.42474 12.8387 7.95731C12.5665 7.48988 12.1234 7.14689 11.6031 7.00098C11.0828 6.85507 10.5263 6.91769 10.0513 7.17558L5.34378 9.90274C5.12133 10.032 4.89089 10.147 4.65386 10.247V1.34771C4.65386 1.33083 4.65722 1.31412 4.66374 1.29855C4.67026 1.28299 4.67982 1.26888 4.69185 1.25706C4.70388 1.24524 4.71814 1.23594 4.73381 1.22971C4.74947 1.22347 4.76622 1.22043 4.78307 1.22075H7.06002C7.06002 2.21471 7.45428 3.16795 8.15606 3.87078C8.85784 4.57362 9.80966 4.96846 10.8021 4.96846C11.7946 4.96846 12.7464 4.57362 13.4482 3.87078C14.15 3.16795 14.5442 2.21471 14.5442 1.22075H16.8212C16.838 1.22043 16.8548 1.22347 16.8705 1.22971C16.8861 1.23594 16.9004 1.24524 16.9124 1.25706C16.9244 1.26888 16.934 1.28299 16.9405 1.29855C16.947 1.31412 16.9504 1.33083 16.9504 1.34771V12.3711L13.9713 13.3306Z" fill="#8C6D0F"/>
</svg>
