<svg width="20" height="20" viewBox="0 0 20 20" fill="none" xmlns="http://www.w3.org/2000/svg">
<path d="M5.19083 3.75H18.125C18.2174 3.75006 18.3087 3.77061 18.3922 3.81019C18.4758 3.84977 18.5495 3.90738 18.6081 3.97887C18.6666 4.05037 18.7086 4.13397 18.731 4.22365C18.7534 4.31333 18.7556 4.40686 18.7375 4.4975L17.4875 10.7475C17.4592 10.8891 17.3827 11.0166 17.271 11.1082C17.1594 11.1998 17.0194 11.2499 16.875 11.25H5.94083L6.19083 13.75H15.625C15.7908 13.75 15.9497 13.8158 16.0669 13.9331C16.1842 14.0503 16.25 14.2092 16.25 14.375C16.25 14.5408 16.1842 14.6997 16.0669 14.8169C15.9497 14.9342 15.7908 15 15.625 15H5.625C5.47009 15 5.32073 14.9424 5.20586 14.8384C5.091 14.7345 5.01882 14.5916 5.00333 14.4375L3.80833 2.5H1.875C1.70924 2.5 1.55027 2.43415 1.43306 2.31694C1.31585 2.19973 1.25 2.04076 1.25 1.875C1.25 1.70924 1.31585 1.55027 1.43306 1.43306C1.55027 1.31585 1.70924 1.25 1.875 1.25H4.375C4.52991 1.25005 4.67927 1.30762 4.79414 1.41155C4.909 1.51549 4.98118 1.65837 4.99667 1.8125L5.19083 3.75ZM5.31583 5L5.81583 10H16.3625L17.3625 5H5.31583ZM6.25 18.75C5.91848 18.75 5.60054 18.6183 5.36612 18.3839C5.1317 18.1495 5 17.8315 5 17.5C5 17.1685 5.1317 16.8505 5.36612 16.6161C5.60054 16.3817 5.91848 16.25 6.25 16.25C6.58152 16.25 6.89946 16.3817 7.13388 16.6161C7.3683 16.8505 7.5 17.1685 7.5 17.5C7.5 17.8315 7.3683 18.1495 7.13388 18.3839C6.89946 18.6183 6.58152 18.75 6.25 18.75ZM15 18.75C14.6685 18.75 14.3505 18.6183 14.1161 18.3839C13.8817 18.1495 13.75 17.8315 13.75 17.5C13.75 17.1685 13.8817 16.8505 14.1161 16.6161C14.3505 16.3817 14.6685 16.25 15 16.25C15.3315 16.25 15.6495 16.3817 15.8839 16.6161C16.1183 16.8505 16.25 17.1685 16.25 17.5C16.25 17.8315 16.1183 18.1495 15.8839 18.3839C15.6495 18.6183 15.3315 18.75 15 18.75Z" fill="#E8B419"/>
</svg>
