<svg width="29" height="29" viewBox="0 0 29 29" fill="none" xmlns="http://www.w3.org/2000/svg">
<path d="M28.108 0.893523C27.8264 0.609033 27.4909 0.3835 27.1212 0.23009C26.7514 0.0766804 26.3548 -0.00153082 25.9545 2.26968e-05H6.4395C5.70717 0.00088241 5.00506 0.29213 4.48716 0.809898C3.96925 1.32767 3.67781 2.02969 3.67675 2.76202V21.4943H0.5C0.367392 21.4943 0.240215 21.547 0.146447 21.6407C0.0526784 21.7345 0 21.8617 0 21.9943V24.8225C0.00119099 25.7048 0.352251 26.5506 0.976183 27.1744C1.60011 27.7982 2.44598 28.149 3.32825 28.15H20.8638C21.6711 28.1488 22.4449 27.8275 23.0158 27.2566C23.5866 26.6857 23.9078 25.9118 23.909 25.1045V14.8578H28.5C28.6326 14.8578 28.7598 14.8051 28.8536 14.7113C28.9473 14.6176 29 14.4904 29 14.3578V3.04477C29.0015 2.64495 28.9233 2.24884 28.7702 1.87951C28.617 1.51017 28.3919 1.17501 28.108 0.893523ZM4.17675 27.15H3.32825C2.71111 27.1493 2.11945 26.9039 1.683 26.4676C1.24654 26.0312 1.00093 25.4397 1 24.8225V22.4943H17.2525V24.8225C17.2519 25.6935 17.594 26.5298 18.2048 27.1508L4.17675 27.15ZM22.909 3.04477V25.1053C22.9078 25.6474 22.692 26.1669 22.3087 26.5503C21.9254 26.9336 21.4058 27.1495 20.8638 27.1508H20.5807C19.9635 27.15 19.3717 26.9045 18.9352 26.468C18.4988 26.0316 18.2532 25.4398 18.2525 24.8225V21.9943C18.2525 21.8617 18.1998 21.7345 18.1061 21.6407C18.0123 21.547 17.8851 21.4943 17.7525 21.4943H4.6775V2.76202C4.67823 2.29493 4.8641 1.84719 5.19438 1.5169C5.52466 1.18662 5.97241 1.00075 6.4395 1.00002H23.7048C23.1934 1.55827 22.9095 2.28772 22.909 3.04477ZM28 13.8578H23.909V3.04477C23.9096 2.50246 24.1253 1.98252 24.5088 1.59904C24.8922 1.21557 25.4122 0.999868 25.9545 0.999273C26.4966 1.00046 27.0162 1.21635 27.3996 1.5997C27.7829 1.98305 27.9988 2.50264 28 3.04477V13.8578Z" fill="white"/>
<path d="M9.76549 8.75575H9.64849C9.48336 8.77172 9.31852 8.72256 9.18911 8.61874C9.0597 8.51492 8.97596 8.36467 8.95574 8.2C8.95574 8.06739 8.90306 7.94021 8.80929 7.84645C8.71552 7.75268 8.58835 7.7 8.45574 7.7C8.32313 7.7 8.19595 7.75268 8.10219 7.84645C8.00842 7.94021 7.95574 8.06739 7.95574 8.2C7.96694 8.55389 8.09627 8.89386 8.32313 9.1657C8.54999 9.43755 8.86131 9.62564 9.20749 9.7V9.97C9.20749 10.1026 9.26017 10.2298 9.35394 10.3236C9.4477 10.4173 9.57488 10.47 9.70749 10.47C9.8401 10.47 9.96727 10.4173 10.061 10.3236C10.1548 10.2298 10.2075 10.1026 10.2075 9.97V9.7C10.5534 9.62538 10.8644 9.43717 11.0909 9.16533C11.3174 8.8935 11.4465 8.55368 11.4575 8.2V7.985C11.438 7.55473 11.249 7.14965 10.9319 6.85825C10.6147 6.56685 10.1951 6.4128 9.76474 6.42975H9.64774C9.48272 6.44573 9.31798 6.39667 9.18859 6.29301C9.0592 6.18935 8.97539 6.03928 8.95499 5.87475V5.6635C8.97539 5.49897 9.0592 5.3489 9.18859 5.24524C9.31798 5.14158 9.48272 5.09252 9.64774 5.1085H9.76474C9.92976 5.09252 10.0945 5.14158 10.2239 5.24524C10.3533 5.3489 10.4371 5.49897 10.4575 5.6635C10.4575 5.79611 10.5102 5.92328 10.6039 6.01705C10.6977 6.11082 10.8249 6.1635 10.9575 6.1635C11.0901 6.1635 11.2173 6.11082 11.311 6.01705C11.4048 5.92328 11.4575 5.79611 11.4575 5.6635C11.4463 5.30961 11.317 4.96964 11.0901 4.69779C10.8632 4.42595 10.5519 4.23785 10.2057 4.1635V3.89325C10.2057 3.76064 10.1531 3.63346 10.0593 3.5397C9.96552 3.44593 9.83835 3.39325 9.70574 3.39325C9.57313 3.39325 9.44595 3.44593 9.35219 3.5397C9.25842 3.63346 9.20574 3.76064 9.20574 3.89325V4.164C8.85989 4.2387 8.54896 4.42693 8.32244 4.69875C8.09593 4.97057 7.96685 5.31035 7.95574 5.664V5.875C7.97529 6.30522 8.16427 6.71024 8.48143 7.00159C8.79859 7.29294 9.21815 7.44695 9.64849 7.43H9.76549C9.93053 7.41409 10.0953 7.46321 10.2247 7.56691C10.354 7.67061 10.4378 7.8207 10.4582 7.98525V8.2C10.438 8.36467 10.3543 8.51492 10.2249 8.61874C10.0955 8.72256 9.93062 8.77172 9.76549 8.75575ZM13.5102 7.43225H20.0152C20.1478 7.43225 20.275 7.37957 20.3688 7.2858C20.4626 7.19203 20.5152 7.06486 20.5152 6.93225C20.5152 6.79964 20.4626 6.67246 20.3688 6.5787C20.275 6.48493 20.1478 6.43225 20.0152 6.43225H13.5102C13.3776 6.43225 13.2505 6.48493 13.1567 6.5787C13.0629 6.67246 13.0102 6.79964 13.0102 6.93225C13.0102 7.06486 13.0629 7.19203 13.1567 7.2858C13.2505 7.37957 13.3776 7.43225 13.5102 7.43225ZM13.5102 4.604H20.0152C20.1478 4.604 20.275 4.55132 20.3688 4.45755C20.4626 4.36378 20.5152 4.23661 20.5152 4.104C20.5152 3.97139 20.4626 3.84421 20.3688 3.75045C20.275 3.65668 20.1478 3.604 20.0152 3.604H13.5102C13.3776 3.604 13.2505 3.65668 13.1567 3.75045C13.0629 3.84421 13.0102 3.97139 13.0102 4.104C13.0102 4.23661 13.0629 4.36378 13.1567 4.45755C13.2505 4.55132 13.3776 4.604 13.5102 4.604ZM13.5102 10.2605H20.0152C20.1478 10.2605 20.275 10.2078 20.3688 10.1141C20.4626 10.0203 20.5152 9.89311 20.5152 9.7605C20.5152 9.62789 20.4626 9.50071 20.3688 9.40695C20.275 9.31318 20.1478 9.2605 20.0152 9.2605H13.5102C13.3776 9.2605 13.2505 9.31318 13.1567 9.40695C13.0629 9.50071 13.0102 9.62789 13.0102 9.7605C13.0102 9.89311 13.0629 10.0203 13.1567 10.1141C13.2505 10.2078 13.3776 10.2605 13.5102 10.2605ZM7.57074 13.1607H20.0152C20.1478 13.1607 20.275 13.1081 20.3688 13.0143C20.4626 12.9205 20.5152 12.7934 20.5152 12.6607C20.5152 12.5281 20.4626 12.401 20.3688 12.3072C20.275 12.2134 20.1478 12.1607 20.0152 12.1607H7.57074C7.43813 12.1607 7.31095 12.2134 7.21719 12.3072C7.12342 12.401 7.07074 12.5281 7.07074 12.6607C7.07074 12.7934 7.12342 12.9205 7.21719 13.0143C7.31095 13.1081 7.43813 13.1607 7.57074 13.1607ZM7.57074 15.9892H20.0152C20.1478 15.9892 20.275 15.9366 20.3688 15.8428C20.4626 15.749 20.5152 15.6219 20.5152 15.4892C20.5152 15.3566 20.4626 15.2295 20.3688 15.1357C20.275 15.0419 20.1478 14.9892 20.0152 14.9892H7.57074C7.43813 14.9892 7.31095 15.0419 7.21719 15.1357C7.12342 15.2295 7.07074 15.3566 7.07074 15.4892C7.07074 15.6219 7.12342 15.749 7.21719 15.8428C7.31095 15.9366 7.43813 15.9892 7.57074 15.9892ZM7.57074 18.8175H20.0152C20.1478 18.8175 20.275 18.7648 20.3688 18.6711C20.4626 18.5773 20.5152 18.4501 20.5152 18.3175C20.5152 18.1849 20.4626 18.0577 20.3688 17.9639C20.275 17.8702 20.1478 17.8175 20.0152 17.8175H7.57074C7.43813 17.8175 7.31095 17.8702 7.21719 17.9639C7.12342 18.0577 7.07074 18.1849 7.07074 18.3175C7.07074 18.4501 7.12342 18.5773 7.21719 18.6711C7.31095 18.7648 7.43813 18.8175 7.57074 18.8175Z" fill="white"/>
</svg>
