<svg width="35" height="32" viewBox="0 0 35 32" fill="none" xmlns="http://www.w3.org/2000/svg">
<path d="M27.9687 27.6H30.5316C32.4253 27.6 34.0752 26.1253 33.4736 24.4538C32.5568 21.9065 30.3011 20.3661 26.3359 19.8325M21.1024 14.6164C21.6012 14.7632 22.1727 14.8327 22.8166 14.8327C25.674 14.8327 27.1027 13.4647 27.1027 10.0449C27.1027 6.62507 25.674 5.25714 22.8166 5.25714C22.1727 5.25714 21.6012 5.32662 21.1024 5.47342M12.53 19.6204C19.4259 19.6204 22.7373 21.6167 23.4994 25.6093C23.7065 26.6943 22.7784 27.6 21.6738 27.6H3.38617C2.2816 27.6 1.35355 26.6943 1.56065 25.6093C2.32272 21.6167 5.63414 19.6204 12.53 19.6204ZM12.53 14.8327C15.3874 14.8327 16.8161 13.4647 16.8161 10.0449C16.8161 6.62507 15.3874 5.25714 12.53 5.25714C9.67261 5.25714 8.24392 6.62507 8.24392 10.0449C8.24392 13.4647 9.67261 14.8327 12.53 14.8327Z" stroke="white" stroke-width="1.8" stroke-linecap="round" stroke-linejoin="round"/>
</svg>
