<svg width="57" height="57" viewBox="0 0 57 57" fill="none" xmlns="http://www.w3.org/2000/svg">
<path d="M5.89655 9.82751H47.1724C48.215 9.82751 49.2149 10.2417 49.9521 10.9789C50.6893 11.7161 51.1035 12.716 51.1035 13.7585V21.6206H5.89655C4.33269 21.6206 2.83288 20.9994 1.72706 19.8936C0.621242 18.7877 0 17.2879 0 15.7241C0 14.1602 0.621242 12.6604 1.72706 11.5546C2.83288 10.4488 4.33269 9.82751 5.89655 9.82751Z" fill="#8D637B"/>
<path d="M25.5517 35.3793C35.3214 35.3793 43.2414 27.4594 43.2414 17.6897C43.2414 7.91993 35.3214 0 25.5517 0C15.782 0 7.86206 7.91993 7.86206 17.6897C7.86206 27.4594 15.782 35.3793 25.5517 35.3793Z" fill="#E1B8F1"/>
<path d="M43.2414 17.6897C43.2411 22.3812 41.3773 26.8804 38.0599 30.1978C34.7425 33.5152 30.2432 35.3791 25.5517 35.3793C24.8951 35.3781 24.239 35.342 23.5862 35.2712C27.91 34.7866 31.9037 32.7257 34.8039 29.4823C37.7041 26.2389 39.3074 22.0406 39.3074 17.6897C39.3074 13.3387 37.7041 9.14037 34.8039 5.89699C31.9037 2.65361 27.91 0.592688 23.5862 0.108103C24.239 0.03726 24.8951 0.00117473 25.5517 0C30.2432 0.000260618 34.7425 1.86407 38.0599 5.18147C41.3773 8.49887 43.2411 12.9981 43.2414 17.6897Z" fill="#DDA5E8"/>
<path d="M25.5517 31.4483C33.1504 31.4483 39.3103 25.2883 39.3103 17.6897C39.3103 10.091 33.1504 3.93103 25.5517 3.93103C17.953 3.93103 11.7931 10.091 11.7931 17.6897C11.7931 25.2883 17.953 31.4483 25.5517 31.4483Z" fill="#BDA4C9"/>
<path d="M28.0086 31.2321C27.1973 31.374 26.3753 31.4463 25.5517 31.4483C21.9027 31.4483 18.4031 29.9987 15.8229 27.4185C13.2427 24.8382 11.7931 21.3387 11.7931 17.6897C11.7931 14.0406 13.2427 10.5411 15.8229 7.96084C18.4031 5.38059 21.9027 3.93103 25.5517 3.93103C26.3753 3.93298 27.1973 4.00531 28.0086 4.14724C24.8372 4.72396 21.9688 6.39543 19.9034 8.87024C17.8381 11.3451 16.7068 14.4662 16.7068 17.6897C16.7068 20.9131 17.8381 24.0342 19.9034 26.5091C21.9688 28.9839 24.8372 30.6553 28.0086 31.2321Z" fill="#B044D7"/>
<path d="M26.5344 16.707H24.5689C24.0476 16.707 23.5476 16.4999 23.179 16.1313C22.8104 15.7627 22.6033 15.2628 22.6033 14.7415C22.6033 14.2202 22.8104 13.7203 23.179 13.3517C23.5476 12.9831 24.0476 12.776 24.5689 12.776H29.4826C29.7433 12.776 29.9933 12.6724 30.1776 12.4881C30.3619 12.3038 30.4654 12.0539 30.4654 11.7932C30.4654 11.5326 30.3619 11.2826 30.1776 11.0983C29.9933 10.914 29.7433 10.8105 29.4826 10.8105H26.5344V8.84494C26.5344 8.5843 26.4308 8.33433 26.2465 8.15003C26.0622 7.96572 25.8123 7.86218 25.5516 7.86218C25.291 7.86218 25.041 7.96572 24.8567 8.15003C24.6724 8.33433 24.5689 8.5843 24.5689 8.84494V10.8105C23.5263 10.8105 22.5264 11.2246 21.7892 11.9618C21.052 12.699 20.6378 13.6989 20.6378 14.7415C20.6378 15.7841 21.052 16.7839 21.7892 17.5212C22.5264 18.2584 23.5263 18.6725 24.5689 18.6725H26.5344C27.0557 18.6725 27.5556 18.8796 27.9242 19.2482C28.2928 19.6168 28.4999 20.1168 28.4999 20.638C28.4999 21.1593 28.2928 21.6593 27.9242 22.0279C27.5556 22.3965 27.0557 22.6036 26.5344 22.6036H21.6206C21.3599 22.6036 21.11 22.7071 20.9257 22.8914C20.7414 23.0757 20.6378 23.3257 20.6378 23.5863C20.6378 23.847 20.7414 24.0969 20.9257 24.2812C21.11 24.4655 21.3599 24.5691 21.6206 24.5691H26.5344C27.5769 24.5691 28.5768 24.1549 29.314 23.4177C30.0512 22.6805 30.4654 21.6806 30.4654 20.638C30.4654 19.5955 30.0512 18.5956 29.314 17.8584C28.5768 17.1212 27.5769 16.707 26.5344 16.707Z" fill="#EEEEEE"/>
<path d="M55.0345 25.5518V53.069C55.0345 54.1116 54.6203 55.1115 53.8831 55.8487C53.1459 56.5859 52.146 57 51.1034 57H5.89655C4.33269 57 2.83288 56.3788 1.72706 55.273C0.621242 54.1672 0 52.6674 0 51.1035V15.7242C0.00130126 17.2876 0.622961 18.7867 1.7285 19.8922C2.83403 20.9978 4.33309 21.6194 5.89655 21.6207H51.1034C52.146 21.6207 53.1459 22.0349 53.8831 22.7721C54.6203 23.5093 55.0345 24.5092 55.0345 25.5518Z" fill="#A1887F"/>
<path d="M55.0344 25.5517V53.0689C55.0345 53.5852 54.9329 54.0964 54.7354 54.5734C54.5379 55.0504 54.2483 55.4838 53.8833 55.8489C53.5182 56.2139 53.0848 56.5035 52.6078 56.701C52.1308 56.8985 51.6196 57.0001 51.1033 57H5.89643C4.39196 56.9981 2.94517 56.4209 1.85251 55.3867C0.759859 54.3526 0.104073 52.9397 0.0195312 51.4376C0.557119 52.2425 1.2851 52.9022 2.13886 53.3582C2.99262 53.8143 3.94575 54.0525 4.91367 54.0517H46.1895C46.7058 54.0518 47.217 53.9502 47.694 53.7527C48.171 53.5552 48.6044 53.2657 48.9695 52.9006C49.3345 52.5356 49.6241 52.1022 49.8216 51.6252C50.0191 51.1482 50.1207 50.6369 50.1206 50.1207V24.5689C50.1209 24.0106 50.0018 23.4587 49.7713 22.9502C49.5407 22.4417 49.2041 21.9884 48.784 21.6207H51.1033C51.6196 21.6205 52.1308 21.7221 52.6078 21.9196C53.0848 22.1171 53.5182 22.4067 53.8833 22.7718C54.2483 23.1368 54.5379 23.5702 54.7354 24.0472C54.9329 24.5242 55.0345 25.0354 55.0344 25.5517Z" fill="#8D637B"/>
<path d="M44.224 32.431H55.0344C55.5557 32.431 56.0556 32.6381 56.4242 33.0067C56.7928 33.3753 56.9999 33.8753 56.9999 34.3965V44.2241C56.9999 44.7454 56.7928 45.2454 56.4242 45.614C56.0556 45.9826 55.5557 46.1897 55.0344 46.1897H44.224C42.3995 46.1897 40.6497 45.4649 39.3596 44.1748C38.0695 42.8846 37.3447 41.1348 37.3447 39.3103C37.3447 37.4858 38.0695 35.7361 39.3596 34.4459C40.6497 33.1558 42.3995 32.431 44.224 32.431Z" fill="#9C86A6"/>
<path d="M56.9999 34.3965V44.2241C56.9983 44.7449 56.7908 45.244 56.4225 45.6122C56.0542 45.9805 55.5552 46.1881 55.0344 46.1896H44.224C42.5121 46.1917 40.8612 45.5537 39.5956 44.4009C38.3301 43.248 37.5412 41.6637 37.384 39.959C37.661 40.4211 37.9944 40.8469 38.3766 41.2267C39.0141 41.8673 39.7723 42.3752 40.6073 42.721C41.4423 43.0668 42.3375 43.2437 43.2413 43.2414H48.1551C48.6713 43.2415 49.1826 43.1399 49.6596 42.9424C50.1366 42.7449 50.57 42.4553 50.935 42.0903C51.3001 41.7252 51.5896 41.2918 51.7871 40.8148C51.9846 40.3378 52.0862 39.8266 52.0861 39.3103V32.431H55.0344C55.5552 32.4326 56.0542 32.6402 56.4225 33.0084C56.7908 33.3767 56.9983 33.8757 56.9999 34.3965Z" fill="#674174"/>
<path d="M44.2241 41.2758C45.3096 41.2758 46.1896 40.3958 46.1896 39.3102C46.1896 38.2247 45.3096 37.3447 44.2241 37.3447C43.1385 37.3447 42.2585 38.2247 42.2585 39.3102C42.2585 40.3958 43.1385 41.2758 44.2241 41.2758Z" fill="#EEEEEE"/>
<path d="M46.1897 39.3104C46.1903 39.6556 46.0998 39.9948 45.9273 40.2939C45.7549 40.5929 45.5066 40.8412 45.2076 41.0136C44.9085 41.1861 44.5693 41.2766 44.2241 41.2761C43.8789 41.2755 43.54 41.1839 43.2415 41.0106C43.5403 40.8386 43.7885 40.5909 43.9612 40.2924C44.1338 39.9939 44.2247 39.6552 44.2247 39.3104C44.2247 38.9656 44.1338 38.6269 43.9612 38.3284C43.7885 38.0299 43.5403 37.7822 43.2415 37.6102C43.54 37.4368 43.8789 37.3453 44.2241 37.3447C44.5693 37.3442 44.9085 37.4347 45.2076 37.6072C45.5066 37.7796 45.7549 38.0279 45.9273 38.3269C46.0998 38.626 46.1903 38.9652 46.1897 39.3104Z" fill="#E0E0E0"/>
</svg>
