<svg width="24" height="24" viewBox="0 0 24 24" fill="none" xmlns="http://www.w3.org/2000/svg">
<path d="M22.6995 7.78207L19.7701 3.1775C19.3037 2.45694 18.4641 2 17.5871 2H6.42953C5.53394 2 4.69432 2.43937 4.24652 3.1775L1.31719 7.78207C1.11195 8.09842 1 8.46749 1 8.83656V9.2232C1 10.6467 2.00754 11.8594 3.38825 12.1933V20.6116C3.38825 21.3849 4.05994 22 4.86224 22H19.1357C19.9567 22 20.6097 21.3673 20.6097 20.6116V12.1933C21.9904 11.8594 22.998 10.6643 22.998 9.2232V8.83656C23.0166 8.46749 22.9047 8.09842 22.6995 7.78207ZM14.266 20.9279H9.75068V15.5677H14.266V20.9279ZM19.1544 20.9279H15.3855V15.5325C15.3855 14.9701 14.9003 14.5132 14.3033 14.5132H9.71337C9.11631 14.5132 8.63119 14.9701 8.63119 15.5325V20.9279H4.8809C4.67566 20.9279 4.52639 20.7698 4.52639 20.594V12.2636C5.21675 12.1933 5.86978 11.9121 6.37355 11.4552C6.54148 11.3146 6.67208 11.1564 6.80269 10.9807C7.38109 11.754 8.33266 12.2812 9.41484 12.2812C10.497 12.2812 11.4486 11.7715 12.027 10.9807C12.6054 11.754 13.557 12.2812 14.6391 12.2812C15.7213 12.2812 16.6729 11.7715 17.2513 10.9807C17.3819 11.1388 17.5125 11.297 17.6804 11.4552C18.1842 11.9121 18.8372 12.1933 19.5276 12.2636V20.594C19.5089 20.7873 19.341 20.9279 19.1544 20.9279ZM21.8972 9.2232C21.8972 10.2777 21.0202 11.174 19.938 11.2267C19.3783 11.2443 18.8372 11.0685 18.4267 10.6995C18.0163 10.3304 17.7924 9.83831 17.7924 9.2935C17.7924 8.99473 17.5498 8.76626 17.2326 8.76626C16.9154 8.76626 16.6729 8.99473 16.6729 9.2935C16.6729 10.3656 15.7586 11.2267 14.6205 11.2267C13.4823 11.2267 12.5681 10.3656 12.5681 9.2935C12.5681 8.99473 12.3255 8.76626 12.0083 8.76626C11.6911 8.76626 11.4486 8.99473 11.4486 9.2935C11.4486 10.3656 10.5343 11.2267 9.39618 11.2267C8.25803 11.2267 7.34378 10.3656 7.34378 9.2935C7.34378 8.99473 7.10122 8.76626 6.78403 8.76626C6.46684 8.76626 6.22429 8.99473 6.22429 9.2935C6.22429 9.82074 6.00039 10.3304 5.58991 10.6995C5.17943 11.0685 4.63834 11.2619 4.0786 11.2267C2.99642 11.174 2.11949 10.2777 2.11949 9.2232V8.83656C2.11949 8.66081 2.17546 8.48506 2.26876 8.32689L5.19809 3.72232C5.4593 3.3181 5.92576 3.07206 6.42953 3.07206H17.6058C18.1095 3.07206 18.576 3.3181 18.8372 3.72232L21.7665 8.32689C21.8598 8.48506 21.9158 8.66081 21.9158 8.83656V9.2232H21.8972Z" fill="#1F1F1F"/>
</svg>
