<svg width="24" height="24" viewBox="0 0 24 24" fill="none" xmlns="http://www.w3.org/2000/svg">
<path d="M19.5937 9.13916H18.8737V15.8067H19.5937C20.2032 15.806 20.7875 15.5636 21.2184 15.1326C21.6494 14.7017 21.8918 14.1174 21.8925 13.5079V11.4417C21.8926 10.8316 21.6505 10.2465 21.2195 9.81476C20.7885 9.38305 20.2038 9.14005 19.5937 9.13916Z" fill="#1F1F1F"/>
<path d="M18.8738 15.0566V15.8066H18.1238C17.9248 15.8066 17.7341 15.7276 17.5934 15.587C17.4528 15.4463 17.3738 15.2556 17.3738 15.0566C17.3734 14.9581 17.3926 14.8604 17.4301 14.7692C17.4677 14.6781 17.5229 14.5953 17.5926 14.5255C17.6623 14.4558 17.7452 14.4006 17.8363 14.363C17.9275 14.3255 18.0252 14.3063 18.1238 14.3066C18.3227 14.3066 18.5134 14.3857 18.6541 14.5263C18.7947 14.667 18.8738 14.8577 18.8738 15.0566Z" fill="#1F1F1F"/>
<path d="M17.3738 15.0567V9.88916C17.3738 9.69025 17.4528 9.49948 17.5934 9.35883C17.7341 9.21818 17.9248 9.13916 18.1238 9.13916H18.8738V15.0567C18.8738 14.8577 18.7947 14.667 18.6541 14.5263C18.5134 14.3857 18.3227 14.3067 18.1238 14.3067C18.0252 14.3063 17.9275 14.3255 17.8363 14.363C17.7452 14.4006 17.6623 14.4558 17.5926 14.5256C17.5229 14.5953 17.4677 14.6781 17.4301 14.7692C17.3926 14.8604 17.3734 14.9581 17.3738 15.0567Z" fill="#1F1F1F"/>
<path d="M18.1238 15.8067H18.8738V17.6352C18.875 17.6766 18.8725 17.718 18.8662 17.7589C18.8443 17.9406 18.7567 18.1079 18.6199 18.2295C18.4832 18.351 18.3067 18.4184 18.1238 18.4189C17.9248 18.4189 17.7341 18.3399 17.5934 18.1993C17.4528 18.0586 17.3738 17.8678 17.3738 17.6689V15.0552C17.3736 15.1538 17.3928 15.2515 17.4304 15.3427C17.468 15.4338 17.5232 15.5167 17.5929 15.5865C17.6625 15.6563 17.7453 15.7117 17.8364 15.7494C17.9275 15.7872 18.0251 15.8067 18.1238 15.8067Z" fill="#1F1F1F"/>
<path d="M18.8662 17.7604C18.8357 18.3485 18.5806 18.9023 18.1535 19.3078C17.7265 19.7132 17.1601 19.9392 16.5713 19.9392H16.125C16.2334 19.704 16.2897 19.4481 16.29 19.1892C16.2897 18.9302 16.2334 18.6744 16.125 18.4392H16.5713C16.7782 18.4389 16.9771 18.3588 17.1266 18.2157C17.2761 18.0725 17.3646 17.8772 17.3738 17.6704C17.3738 17.8693 17.4528 18.0601 17.5934 18.2007C17.7341 18.3414 17.9248 18.4204 18.1238 18.4204C18.3067 18.4199 18.4832 18.3525 18.6199 18.231C18.7567 18.1094 18.8443 17.9421 18.8662 17.7604Z" fill="#1F1F1F"/>
<path d="M16.125 18.4392C15.9824 18.1297 15.7539 17.8677 15.4667 17.6842C15.1796 17.5007 14.8458 17.4035 14.505 17.4042H11.4075C10.9346 17.4048 10.4813 17.5931 10.1473 17.9279C9.81327 18.2626 9.62585 18.7163 9.62625 19.1892C9.62665 19.6615 9.81446 20.1143 10.1484 20.4483C10.4824 20.7822 10.9352 20.97 11.4075 20.9704H14.505C14.8451 20.97 15.178 20.8728 15.4649 20.6902C15.7517 20.5076 15.9807 20.2471 16.125 19.9392C16.2334 19.704 16.2897 19.4481 16.29 19.1892C16.2897 18.9302 16.2334 18.6744 16.125 18.4392Z" fill="#1F1F1F"/>
<path d="M17.3738 9.88906V5.19031C17.3732 4.99158 17.294 4.80115 17.1534 4.66063C17.0129 4.52011 16.8225 4.4409 16.6238 4.44031H7.66501C7.4661 4.44031 7.27532 4.51932 7.13467 4.65998C6.99401 4.80063 6.91501 4.9914 6.91501 5.19031V9.88906C6.91442 9.69033 6.83521 9.49991 6.69469 9.35939C6.55416 9.21887 6.36374 9.13965 6.16501 9.13906H5.41501V5.19031C5.4161 4.59391 5.6535 4.02225 6.07522 3.60053C6.49694 3.17881 7.06861 2.9414 7.66501 2.94031H16.6238C17.22 2.94209 17.7912 3.17971 18.2128 3.60128C18.6343 4.02286 18.872 4.59412 18.8738 5.19031V9.13906H18.1238C17.9249 9.13906 17.7341 9.21807 17.5934 9.35873C17.4528 9.49938 17.3738 9.69015 17.3738 9.88906Z" fill="#1F1F1F"/>
<path d="M6.91501 15.0567C6.91442 15.2554 6.83521 15.4458 6.69469 15.5863C6.55416 15.7269 6.36374 15.8061 6.16501 15.8067C5.9661 15.8067 5.77532 15.7276 5.63467 15.587C5.49401 15.4463 5.41501 15.2556 5.41501 15.0567V9.13916H6.16501C6.36374 9.13975 6.55416 9.21897 6.69469 9.35949C6.83521 9.50002 6.91442 9.69043 6.91501 9.88916V15.0567Z" fill="#1F1F1F"/>
<path d="M5.41502 15.0567V9.13916H4.69127C4.08123 9.14005 3.49649 9.38305 3.06548 9.81476C2.63446 10.2465 2.39242 10.8316 2.39252 11.4417V13.5079C2.39321 14.1174 2.63563 14.7017 3.06657 15.1326C3.49752 15.5636 4.08182 15.806 4.69127 15.8067H6.16502C5.9661 15.8067 5.77533 15.7276 5.63467 15.587C5.49402 15.4463 5.41502 15.2556 5.41502 15.0567Z" fill="#1F1F1F"/>
</svg>
