<svg width="24" height="24" viewBox="0 0 24 24" fill="none" xmlns="http://www.w3.org/2000/svg">
<path d="M12 22.5C17.79 22.5 22.5 17.79 22.5 12C22.5 6.21 17.79 1.5 12 1.5C6.21 1.5 1.5 6.21 1.5 12C1.5 17.79 6.21 22.5 12 22.5ZM12 3C16.965 3 21 7.035 21 12C21 16.965 16.965 21 12 21C7.035 21 3 16.965 3 12C3 7.035 7.035 3 12 3Z" fill="#1F1F1F"/>
<path d="M7.49999 11.25H16.5C16.6989 11.25 16.8897 11.171 17.0303 11.0303C17.171 10.8897 17.25 10.6989 17.25 10.5C17.25 10.3011 17.171 10.1103 17.0303 9.96964C16.8897 9.82899 16.6989 9.74997 16.5 9.74997H8.90174L9.62399 8.66622C9.73439 8.50073 9.77452 8.29816 9.73556 8.10307C9.6966 7.90799 9.58174 7.73637 9.41624 7.62597C9.25075 7.51558 9.04817 7.47545 8.85309 7.51441C8.658 7.55337 8.48639 7.66823 8.37599 7.83372L6.87599 10.0837C6.80063 10.1967 6.75735 10.328 6.75076 10.4636C6.74417 10.5992 6.77453 10.7341 6.83858 10.8538C6.90264 10.9735 6.998 11.0736 7.11448 11.1434C7.23097 11.2132 7.36421 11.25 7.49999 11.25ZM7.49999 14.25H15.099L14.376 15.3337C14.3213 15.4157 14.2833 15.5076 14.2642 15.6042C14.2451 15.7008 14.2451 15.8003 14.2644 15.8969C14.2837 15.9935 14.3218 16.0853 14.3766 16.1672C14.4314 16.249 14.5018 16.3193 14.5837 16.374C14.7492 16.4844 14.9518 16.5245 15.1469 16.4855C15.342 16.4466 15.5136 16.3317 15.624 16.1662L17.124 13.9162C17.1991 13.8032 17.2421 13.672 17.2486 13.5364C17.2551 13.4009 17.2247 13.2662 17.1607 13.1465C17.0966 13.0269 17.0014 12.9269 16.8851 12.857C16.7688 12.7872 16.6357 12.7502 16.5 12.75H7.49999C7.30108 12.75 7.11031 12.829 6.96966 12.9696C6.82901 13.1103 6.74999 13.3011 6.74999 13.5C6.74999 13.6989 6.82901 13.8897 6.96966 14.0303C7.11031 14.171 7.30108 14.25 7.49999 14.25Z" fill="#1F1F1F"/>
</svg>
