<svg width="18" height="20" viewBox="0 0 18 20" fill="none" xmlns="http://www.w3.org/2000/svg">
<path opacity="0.4" d="M13.191 0H4.81C1.77 0 0 1.78 0 4.83V15.16C0 18.26 1.77 20 4.81 20H13.191C16.28 20 18 18.26 18 15.16V4.83C18 1.78 16.28 0 13.191 0Z" fill="#FDF1F7"/>
<path fill-rule="evenodd" clip-rule="evenodd" d="M5.08094 4.64999V4.65999C4.64994 4.65999 4.30094 5.00999 4.30094 5.43999C4.30094 5.86999 4.64994 6.21999 5.08094 6.21999H8.06994C8.50094 6.21999 8.85094 5.86999 8.85094 5.42899C8.85094 4.99999 8.50094 4.64999 8.06994 4.64999H5.08094ZM12.9209 10.74H5.08094C4.64994 10.74 4.30094 10.39 4.30094 9.95999C4.30094 9.52999 4.64994 9.17899 5.08094 9.17899H12.9209C13.3509 9.17899 13.7009 9.52999 13.7009 9.95999C13.7009 10.39 13.3509 10.74 12.9209 10.74ZM12.9209 15.31H5.08094C4.78094 15.35 4.49094 15.2 4.33094 14.95C4.17094 14.69 4.17094 14.36 4.33094 14.11C4.49094 13.85 4.78094 13.71 5.08094 13.74H12.9209C13.3199 13.78 13.6209 14.12 13.6209 14.53C13.6209 14.929 13.3199 15.27 12.9209 15.31Z" fill="#FDF1F7"/>
</svg>
