<svg width="24" height="24" viewBox="0 0 24 24" fill="none" xmlns="http://www.w3.org/2000/svg">
<path d="M19.595 9.1391H18.875V15.8066H19.595C20.2044 15.8059 20.7887 15.5635 21.2197 15.1325C21.6506 14.7016 21.8931 14.1173 21.8937 13.5078V11.4416C21.8938 10.8316 21.6518 10.2464 21.2208 9.8147C20.7898 9.38298 20.205 9.13999 19.595 9.1391Z" fill="#FDF1F7"/>
<path d="M18.875 15.0566V15.8066H18.125C17.9261 15.8066 17.7353 15.7276 17.5947 15.587C17.454 15.4463 17.375 15.2556 17.375 15.0566C17.3747 14.9581 17.3938 14.8604 17.4314 14.7692C17.4689 14.6781 17.5242 14.5953 17.5939 14.5255C17.6636 14.4558 17.7464 14.4006 17.8376 14.363C17.9287 14.3255 18.0264 14.3063 18.125 14.3066C18.3239 14.3066 18.5147 14.3857 18.6553 14.5263C18.796 14.667 18.875 14.8577 18.875 15.0566Z" fill="white"/>
<path d="M17.375 15.0566V9.8891C17.375 9.69019 17.454 9.49942 17.5947 9.35877C17.7353 9.21812 17.9261 9.1391 18.125 9.1391H18.875V15.0566C18.875 14.8577 18.796 14.6669 18.6553 14.5263C18.5147 14.3856 18.3239 14.3066 18.125 14.3066C18.0264 14.3063 17.9287 14.3254 17.8376 14.363C17.7464 14.4006 17.6636 14.4558 17.5939 14.5255C17.5242 14.5952 17.4689 14.678 17.4314 14.7692C17.3938 14.8603 17.3747 14.958 17.375 15.0566Z" fill="white"/>
<path d="M18.125 15.8066H18.875V17.6351C18.8762 17.6765 18.8737 17.7179 18.8675 17.7589C18.8455 17.9405 18.7579 18.1079 18.6212 18.2294C18.4844 18.351 18.308 18.4184 18.125 18.4189C17.9261 18.4189 17.7353 18.3398 17.5947 18.1992C17.454 18.0585 17.375 17.8678 17.375 17.6689V15.0551C17.3748 15.1537 17.394 15.2514 17.4316 15.3426C17.4693 15.4338 17.5245 15.5166 17.5941 15.5864C17.6638 15.6562 17.7465 15.7116 17.8376 15.7494C17.9287 15.7872 18.0264 15.8066 18.125 15.8066Z" fill="#919191"/>
<path d="M18.8662 17.7604C18.8357 18.3484 18.5806 18.9023 18.1535 19.3077C17.7265 19.7131 17.1601 19.9391 16.5713 19.9391H16.125C16.2334 19.7039 16.2897 19.4481 16.29 19.1891C16.2897 18.9301 16.2334 18.6743 16.125 18.4391H16.5713C16.7782 18.4388 16.9771 18.3588 17.1266 18.2156C17.2761 18.0724 17.3646 17.8771 17.3738 17.6703C17.3738 17.8693 17.4528 18.06 17.5934 18.2007C17.7341 18.3413 17.9248 18.4203 18.1238 18.4203C18.3067 18.4198 18.4832 18.3525 18.6199 18.2309C18.7567 18.1094 18.8443 17.942 18.8662 17.7604Z" fill="#919191"/>
<path d="M16.1238 18.4391C15.9811 18.1296 15.7526 17.8676 15.4655 17.6841C15.1783 17.5007 14.8445 17.4035 14.5038 17.4041H11.4063C10.9334 17.4047 10.4801 17.5931 10.1461 17.9278C9.81202 18.2625 9.6246 18.7162 9.625 19.1891C9.6254 19.6614 9.81321 20.1142 10.1472 20.4482C10.4811 20.7822 10.934 20.97 11.4063 20.9704H14.5038C14.8438 20.97 15.1767 20.8728 15.4636 20.6902C15.7505 20.5075 15.9795 20.247 16.1238 19.9391C16.2321 19.7039 16.2884 19.4481 16.2888 19.1891C16.2884 18.9301 16.2321 18.6743 16.1238 18.4391Z" fill="#FDF1F7"/>
<path d="M17.3728 9.88912V5.19037C17.3722 4.99164 17.293 4.80121 17.1525 4.66069C17.012 4.52017 16.8215 4.44096 16.6228 4.44037H7.66406C7.46515 4.44037 7.27437 4.51939 7.13372 4.66004C6.99307 4.80069 6.91406 4.99146 6.91406 5.19037V9.88912C6.91347 9.69039 6.83426 9.49998 6.69374 9.35945C6.55322 9.21893 6.36279 9.13971 6.16406 9.13912H5.41406V5.19037C5.41515 4.59397 5.65255 4.02231 6.07427 3.60059C6.49599 3.17887 7.06766 2.94146 7.66406 2.94037H16.6228C17.219 2.94215 17.7903 3.17977 18.2118 3.60135C18.6334 4.02292 18.871 4.59418 18.8728 5.19037V9.13912H18.1228C17.9239 9.13912 17.7331 9.21814 17.5925 9.35879C17.4518 9.49944 17.3728 9.69021 17.3728 9.88912Z" fill="#919191"/>
<path d="M6.91406 15.0566C6.91347 15.2553 6.83426 15.4458 6.69374 15.5863C6.55322 15.7268 6.36279 15.806 6.16406 15.8066C5.96515 15.8066 5.77437 15.7276 5.63372 15.5869C5.49307 15.4463 5.41406 15.2555 5.41406 15.0566V9.1391H6.16406C6.36279 9.13969 6.55322 9.21891 6.69374 9.35943C6.83426 9.49996 6.91347 9.69037 6.91406 9.8891V15.0566Z" fill="white"/>
<path d="M5.41312 15.0566V9.1391H4.68938C4.07934 9.13999 3.4946 9.38298 3.06358 9.8147C2.63257 10.2464 2.39053 10.8316 2.39063 11.4416V13.5078C2.39132 14.1173 2.63373 14.7016 3.06468 15.1325C3.49563 15.5635 4.07992 15.8059 4.68938 15.8066H6.16312C5.96421 15.8066 5.77343 15.7276 5.63278 15.5869C5.49213 15.4463 5.41312 15.2555 5.41312 15.0566Z" fill="#FDF1F7"/>
</svg>
