<svg width="22" height="16" viewBox="0 0 22 16" fill="none" xmlns="http://www.w3.org/2000/svg">
<path d="M10.9508 10.5399C7.5008 10.5399 4.58984 11.1037 4.58984 13.2794C4.58984 15.4561 7.5196 16 10.9508 16C14.4008 16 17.3117 15.4363 17.3117 13.2605C17.3117 11.0839 14.382 10.5399 10.9508 10.5399Z" fill="#FDF1F7"/>
<path opacity="0.4" d="M10.9476 8.46703C13.2837 8.46703 15.1569 6.58307 15.1569 4.23351C15.1569 1.88306 13.2837 0 10.9476 0C8.61146 0 6.73828 1.88306 6.73828 4.23351C6.73828 6.58307 8.61146 8.46703 10.9476 8.46703Z" fill="#FDF1F7"/>
<path opacity="0.4" d="M20.0886 5.21926C20.693 2.84179 18.9209 0.706573 16.6645 0.706573C16.4192 0.706573 16.1846 0.73359 15.9554 0.779519C15.9249 0.786723 15.8909 0.802032 15.873 0.829049C15.8524 0.86327 15.8676 0.909199 15.89 0.938917C16.5678 1.89531 16.9573 3.05973 16.9573 4.3097C16.9573 5.50744 16.6001 6.62413 15.9733 7.5508C15.9088 7.64626 15.9661 7.77504 16.0798 7.79485C16.2374 7.82277 16.3986 7.83718 16.5634 7.84168C18.2064 7.88491 19.6811 6.82135 20.0886 5.21926Z" fill="#FDF1F7"/>
<path d="M21.8094 10.8169C21.5086 10.1721 20.7824 9.72997 19.6783 9.51294C19.1572 9.38506 17.747 9.20495 16.4352 9.22926C16.4155 9.23196 16.4048 9.24547 16.403 9.25448C16.4003 9.26709 16.4057 9.2887 16.4316 9.30221C17.0378 9.60389 19.3811 10.916 19.0865 13.6834C19.074 13.8032 19.1698 13.9068 19.2888 13.8887C19.8655 13.8059 21.3492 13.4853 21.8094 12.4866C22.0637 11.9588 22.0637 11.3456 21.8094 10.8169Z" fill="#FDF1F7"/>
<path opacity="0.4" d="M6.04508 0.779793C5.81675 0.732964 5.58126 0.706848 5.33592 0.706848C3.0795 0.706848 1.3075 2.84207 1.91279 5.21953C2.31931 6.82162 3.79403 7.88518 5.4371 7.84195C5.60185 7.83745 5.76392 7.82214 5.92061 7.79513C6.03433 7.77531 6.09164 7.64653 6.02717 7.55107C5.40039 6.6235 5.04312 5.50771 5.04312 4.30997C5.04312 3.0591 5.43352 1.89468 6.11134 0.939192C6.13283 0.909473 6.14894 0.863545 6.12745 0.829324C6.10954 0.801407 6.07642 0.786998 6.04508 0.779793Z" fill="#FDF1F7"/>
<path d="M2.32156 9.51267C1.21752 9.7297 0.492248 10.1719 0.191392 10.8167C-0.0637974 11.3453 -0.0637974 11.9586 0.191392 12.4872C0.651629 13.485 2.13531 13.8065 2.71195 13.8885C2.83104 13.9065 2.92595 13.8038 2.91342 13.6831C2.61883 10.9166 4.9621 9.60453 5.56918 9.30284C5.59425 9.28843 5.59962 9.26772 5.59694 9.25421C5.59515 9.2452 5.5853 9.2317 5.5656 9.22989C4.25294 9.20468 2.84358 9.38479 2.32156 9.51267Z" fill="#FDF1F7"/>
</svg>
