<svg width="21" height="16" viewBox="0 0 21 16" fill="none" xmlns="http://www.w3.org/2000/svg">
<path fill-rule="evenodd" clip-rule="evenodd" d="M18.1907 4.349C18.8007 4.349 19.2007 4.559 19.6007 5.019C20.0007 5.479 20.0707 6.139 19.9807 6.738L19.0307 13.298C18.8507 14.559 17.7707 15.488 16.5007 15.488H5.59074C4.26074 15.488 3.16074 14.468 3.05074 13.149L2.13074 2.248L0.620742 1.988C0.220742 1.918 -0.0592579 1.528 0.0107421 1.128C0.0807421 0.718002 0.470742 0.448002 0.880742 0.508002L3.26574 0.868002C3.60574 0.929002 3.85574 1.208 3.88574 1.548L4.07574 3.788C4.10574 4.109 4.36574 4.349 4.68574 4.349H18.1907ZM12.1307 9.548H14.9007C15.3207 9.548 15.6507 9.208 15.6507 8.798C15.6507 8.378 15.3207 8.048 14.9007 8.048H12.1307C11.7107 8.048 11.3807 8.378 11.3807 8.798C11.3807 9.208 11.7107 9.548 12.1307 9.548Z" fill="#FDF1F7"/>
</svg>
