<svg width="22" height="20" viewBox="0 0 22 20" fill="none" xmlns="http://www.w3.org/2000/svg">
<path d="M21.6995 5.78207L18.7701 1.1775C18.3037 0.456942 17.4641 0 16.5871 0H5.42953C4.53394 0 3.69432 0.439367 3.24652 1.1775L0.317189 5.78207C0.111949 6.09842 0 6.46749 0 6.83656V7.2232C0 8.64675 1.00754 9.8594 2.38825 10.1933V18.6116C2.38825 19.3849 3.05994 20 3.86224 20H18.1357C18.9567 20 19.6097 19.3673 19.6097 18.6116V10.1933C20.9904 9.8594 21.998 8.66432 21.998 7.2232V6.83656C22.0166 6.46749 21.9047 6.09842 21.6995 5.78207ZM13.266 18.9279H8.75068V13.5677H13.266V18.9279ZM18.1544 18.9279H14.3855V13.5325C14.3855 12.9701 13.9003 12.5132 13.3033 12.5132H8.71337C8.11631 12.5132 7.63119 12.9701 7.63119 13.5325V18.9279H3.8809C3.67566 18.9279 3.52639 18.7698 3.52639 18.594V10.2636C4.21675 10.1933 4.86978 9.91213 5.37355 9.45518C5.54148 9.31459 5.67208 9.15641 5.80269 8.98067C6.3811 9.75395 7.33266 10.2812 8.41484 10.2812C9.49701 10.2812 10.4486 9.77153 11.027 8.98067C11.6054 9.75395 12.557 10.2812 13.6391 10.2812C14.7213 10.2812 15.6729 9.77153 16.2513 8.98067C16.3819 9.13884 16.5125 9.29701 16.6804 9.45518C17.1842 9.91213 17.8372 10.1933 18.5276 10.2636V18.594C18.5089 18.7873 18.341 18.9279 18.1544 18.9279ZM20.8972 7.2232C20.8972 8.27768 20.0202 9.17399 18.938 9.22671C18.3783 9.24429 17.8372 9.06854 17.4267 8.69947C17.0163 8.3304 16.7924 7.83831 16.7924 7.2935C16.7924 6.99473 16.5498 6.76626 16.2326 6.76626C15.9154 6.76626 15.6729 6.99473 15.6729 7.2935C15.6729 8.36555 14.7586 9.22671 13.6205 9.22671C12.4823 9.22671 11.5681 8.36555 11.5681 7.2935C11.5681 6.99473 11.3255 6.76626 11.0083 6.76626C10.6911 6.76626 10.4486 6.99473 10.4486 7.2935C10.4486 8.36555 9.53433 9.22671 8.39618 9.22671C7.25803 9.22671 6.34378 8.36555 6.34378 7.2935C6.34378 6.99473 6.10122 6.76626 5.78403 6.76626C5.46685 6.76626 5.22429 6.99473 5.22429 7.2935C5.22429 7.82074 5.00039 8.3304 4.58991 8.69947C4.17943 9.06854 3.63834 9.26186 3.0786 9.22671C1.99642 9.17399 1.11949 8.27768 1.11949 7.2232V6.83656C1.11949 6.66081 1.17547 6.48506 1.26876 6.32689L4.19809 1.72232C4.4593 1.3181 4.92576 1.07206 5.42953 1.07206H16.6058C17.1095 1.07206 17.576 1.3181 17.8372 1.72232L20.7666 6.32689C20.8598 6.48506 20.9158 6.66081 20.9158 6.83656V7.2232H20.8972Z" fill="#FDF1F7"/>
</svg>
