<svg width="12" height="10" viewBox="0 0 12 10" fill="none" xmlns="http://www.w3.org/2000/svg">
<path d="M1.50011 4.25H10.5001C10.699 4.25 10.8898 4.17099 11.0304 4.03033C11.1711 3.88968 11.2501 3.69892 11.2501 3.5C11.2501 3.30109 11.1711 3.11033 11.0304 2.96967C10.8898 2.82902 10.699 2.75 10.5001 2.75H2.90186L3.62411 1.66625C3.73451 1.50076 3.77464 1.29819 3.73568 1.1031C3.69672 0.908018 3.58186 0.736401 3.41636 0.626005C3.25087 0.515608 3.0483 0.475476 2.85321 0.514437C2.65813 0.553398 2.48651 0.668259 2.37611 0.833754L0.876113 3.08375C0.800753 3.1967 0.757471 3.328 0.750883 3.46362C0.744296 3.59924 0.77465 3.73411 0.838707 3.85383C0.902764 3.97355 0.998121 4.07364 1.11461 4.14341C1.23109 4.21318 1.36433 4.25003 1.50011 4.25ZM1.50011 7.25H9.09911L8.37611 8.33375C8.32145 8.4157 8.28346 8.50761 8.26432 8.60423C8.24518 8.70086 8.24525 8.80031 8.26454 8.89691C8.28384 8.9935 8.32196 9.08535 8.37675 9.16721C8.43154 9.24907 8.50192 9.31934 8.58386 9.374C8.74936 9.4844 8.95193 9.52453 9.14701 9.48557C9.3421 9.44661 9.51372 9.33175 9.62411 9.16625L11.1241 6.91625C11.1992 6.80325 11.2423 6.672 11.2487 6.53648C11.2552 6.40095 11.2248 6.26621 11.1608 6.14658C11.0968 6.02694 11.0015 5.92689 10.8852 5.85706C10.7689 5.78723 10.6358 5.75024 10.5001 5.75H1.50011C1.3012 5.75 1.11043 5.82902 0.969782 5.96967C0.82913 6.11033 0.750112 6.30109 0.750112 6.5C0.750112 6.69892 0.82913 6.88968 0.969782 7.03033C1.11043 7.17099 1.3012 7.25 1.50011 7.25Z" fill="#FDF1F7"/>
</svg>
